<?xml version="1.0" encoding="iso-8859-1"?>
<!-- Generator: Adobe Illustrator 18.0.0, SVG Export Plug-In . SVG Version: 6.00 Build 0)  -->
<!DOCTYPE svg PUBLIC "-//W3C//DTD SVG 1.1//EN" "http://www.w3.org/Graphics/SVG/1.1/DTD/svg11.dtd">
<svg version="1.1" id="Capa_1" xmlns="http://www.w3.org/2000/svg" xmlns:xlink="http://www.w3.org/1999/xlink" x="0px" y="0px"
	 viewBox="0 0 498.071 498.071" style="enable-background:new 0 0 498.071 498.071;" xml:space="preserve">
<g>
	<path d="M212.352,246.389c4.501,4.499,11.807,4.499,16.309,0L404.453,70.603c3.302-3.303,4.285-8.264,2.498-12.569
		c-1.781-4.314-5.986-7.121-10.653-7.121H44.72c-4.665,0-8.872,2.807-10.659,7.121c-1.78,4.306-0.797,9.267,2.505,12.569
		L212.352,246.389z"/>
	<path d="M463.395,381.684c-6.938,0-13.459-2.702-18.363-7.606l-1.264-1.264c-9.471,20.624-30.287,34.954-54.468,34.954
		c-23.44,0-43.718-13.468-53.565-33.078h5.255c3.618,0,6.879-2.179,8.263-5.521c1.385-3.343,0.619-7.19-1.939-9.748l-25.783-25.783
		c-3.492-3.492-9.156-3.492-12.648,0l-25.783,25.783c-2.559,2.558-3.324,6.405-1.939,9.748c1.385,3.342,4.646,5.521,8.264,5.521
		h4.242c11.714,41.806,50.088,72.47,95.636,72.47c47.369,0,86.981-33.164,96.913-77.538l-4.457,4.456
		C476.852,378.982,470.33,381.684,463.395,381.684z"/>
	<path d="M497.391,326.51c-1.385-3.343-4.646-5.521-8.264-5.521h-4.242c-11.715-41.807-50.089-72.47-95.636-72.47
		c-47.369,0-86.982,33.164-96.913,77.538l4.457-4.457c4.903-4.904,11.425-7.606,18.361-7.606c6.938,0.001,13.459,2.702,18.363,7.607
		l1.263,1.264c9.471-20.624,30.288-34.954,54.469-34.954c23.44,0,43.718,13.468,53.565,33.078h-5.256
		c-3.617,0-6.879,2.179-8.262,5.521c-1.385,3.342-0.619,7.189,1.938,9.746l25.784,25.784c3.492,3.492,9.155,3.492,12.648,0
		l25.783-25.784C498.01,333.698,498.774,329.852,497.391,326.51z"/>
	<path d="M318.881,260.938c19.818-16.069,44.809-24.919,70.368-24.919c18.458,0,36.135,4.602,51.776,12.809V98.885
		c0-2.879-1.737-5.478-4.393-6.584c-2.664-1.098-5.729-0.487-7.766,1.551L246.734,275.984c-6.956,6.955-16.394,10.866-26.229,10.866
		c-9.834,0-19.273-3.911-26.223-10.866L12.16,93.859c-2.039-2.039-5.104-2.648-7.767-1.543C1.737,93.414,0,96.013,0,98.892v231.337
		c0,16.237,13.165,29.401,29.402,29.401h239.475c0.959-3.208,2.666-6.212,5.091-8.733l6.17-27.569
		C285.599,298.925,299.357,276.768,318.881,260.938z"/>
</g>
<g>
</g>
<g>
</g>
<g>
</g>
<g>
</g>
<g>
</g>
<g>
</g>
<g>
</g>
<g>
</g>
<g>
</g>
<g>
</g>
<g>
</g>
<g>
</g>
<g>
</g>
<g>
</g>
<g>
</g>
</svg>
